# xmcd
#
# Track frame offsets: 
#        150
#        8455
#        17052
#        34642
#        47115
#        64390
#        82565
#        92647
#        104185
#        115022
#        129052
#        142707
#        152677
#
# Disc length: 2256 seconds
#
# Revision: 0
# Processed by: cddbd v1.4PL0 Copyright (c) Steve Scherf et al.
# Submitted via: ExactAudioCopy v0.90b4
#
DISCID=8f08ce0d
DTITLE=Cody Kilby - Just Me
DYEAR=1997
DGENRE=Bluegrass
TTITLE0=Backstep
TTITLE1=Roundup
TTITLE2=Memories of You
TTITLE3=St. Anne's Reel
TTITLE4=El Cumbanchero
TTITLE5=Washington County
TTITLE6=Ocoee Sunrise
TTITLE7=Monroe's Hornpipe
TTITLE8=One Legged Gypsy
TTITLE9=Tune for Poppy
TTITLE10=Shenandoah Breakdown
TTITLE11=Frosty Morn
TTITLE12=Tom and Jerry
EXTD=
EXTT0=
EXTT1=
EXTT2=
EXTT3=
EXTT4=
EXTT5=
EXTT6=
EXTT7=
EXTT8=
EXTT9=
EXTT10=
EXTT11=
EXTT12=
PLAYORDER=
